<?xml version="1.0" standalone="no"?>
<!DOCTYPE svg PUBLIC "-//W3C//DTD SVG 20010904//EN"
 "http://www.w3.org/TR/2001/REC-SVG-20010904/DTD/svg10.dtd">
<svg version="1.0" xmlns="http://www.w3.org/2000/svg"
 width="1563.000000pt" height="1563.000000pt" viewBox="0 0 1563.000000 1563.000000"
 preserveAspectRatio="xMidYMid meet">

<g transform="translate(0.000000,1563.000000) scale(0.100000,-0.100000)"
fill="#000000" stroke="none">
<path d="M0 7815 l0 -7815 7815 0 7815 0 0 7815 0 7815 -7815 0 -7815 0 0
-7815z m4590 1070 l0 -1305 -155 0 -155 0 0 148 -1 147 -144 -147 -143 -148
-339 0 -338 0 -187 187 -188 188 0 555 0 556 188 187 188 187 338 -2 337 -3
141 -142 c77 -79 142 -143 144 -143 2 0 4 234 4 520 l0 520 155 0 155 0 0
-1305z m8060 0 l0 -1305 -155 0 -155 0 0 1305 0 1305 155 0 155 0 0 -1305z
m-7170 964 l0 -209 -155 0 -155 0 0 203 c0 112 3 207 7 211 4 4 74 6 155 5
l148 -2 0 -208z m3066 202 c5 -3 9 -97 9 -209 l0 -202 -157 0 -158 0 0 204 c0
154 3 205 13 209 19 7 283 6 293 -2z m924 -376 l0 -235 193 -2 192 -3 3 -122
3 -123 -196 0 -195 0 0 -592 0 -593 82 -82 83 -83 152 0 153 0 0 -130 0 -130
-227 0 -228 0 -168 163 -167 162 0 643 0 642 -95 0 -95 0 0 126 0 126 96 -4
c89 -3 98 -1 105 17 5 11 22 108 39 215 17 107 34 205 37 218 5 21 9 22 119
22 l114 0 0 -235z m-4021 -241 l31 -6 0 -924 0 -924 -155 0 -155 0 0 923 c0
508 3 927 7 930 8 9 230 9 272 1z m1754 -140 c77 -79 142 -144 146 -144 3 0 5
55 3 121 -2 67 -1 132 2 145 l7 25 152 -3 152 -3 3 -1069 2 -1070 -187 -188
-187 -188 -568 0 -568 0 0 130 0 130 498 0 497 0 100 98 100 97 -3 245 -3 244
-142 -142 -142 -142 -337 0 -336 0 -186 187 -186 186 0 556 0 556 188 188 187
187 335 0 334 -1 139 -145z m1337 141 c13 -4 15 -115 13 -927 l-3 -923 -152 0
-153 0 -3 919 c-2 711 1 921 10 927 13 8 263 11 288 4z m3047 -182 l182 -188
1 -743 0 -743 -152 3 -153 3 -5 138 -5 137 -140 -140 -140 -140 -325 0 -325 0
-187 187 -188 188 0 210 0 210 187 187 188 188 467 0 468 0 0 118 0 117 -93
93 -92 92 -440 2 -440 3 -3 119 c-1 66 0 126 2 133 4 10 103 13 508 13 l502 0
183 -187z m-4985 -3670 l98 -98 0 -345 0 -345 -97 -97 -98 -98 -202 0 -203 0
0 540 0 540 202 0 203 0 97 -97z m1418 37 l0 -60 -245 0 -245 0 0 -180 0 -180
185 0 185 0 0 -60 0 -60 -186 0 -187 0 7 -77 c3 -42 6 -123 6 -179 l0 -104
236 -2 237 -3 1 -55 1 -55 -302 -3 -303 -2 0 540 0 540 305 0 305 0 0 -60z
m830 -220 l0 -280 87 -175 c48 -96 90 -175 93 -175 3 0 45 79 93 175 l87 175
0 280 0 280 60 0 60 0 0 -280 0 -280 -130 -260 -130 -260 -40 0 -40 0 -129
258 -130 257 -1 283 0 282 60 0 60 0 0 -280z"/>
<path d="M3348 9089 l-98 -99 0 -483 0 -482 98 -98 97 -97 235 0 235 0 183
183 182 182 0 310 -1 310 -182 188 -182 187 -235 -1 -235 -1 -97 -99z"/>
<path d="M6427 9092 l-97 -97 0 -485 0 -485 97 -97 96 -98 232 0 232 0 181
183 182 182 0 313 0 313 -182 185 -181 184 -231 0 -231 0 -98 -98z"/>
<path d="M10560 8405 l-95 -95 -3 -140 -4 -139 100 -101 99 -100 219 0 219 1
183 179 182 179 0 155 0 156 -403 0 -402 0 -95 -95z"/>
<path d="M6220 5140 l0 -420 123 0 123 0 57 58 57 58 0 305 0 305 -59 57 -58
57 -122 0 -121 0 0 -420z"/>
</g>
</svg>
